<?xml version="1.0" encoding="UTF-8"?>
<svg id="Layer_1" data-name="Layer 1" xmlns="http://www.w3.org/2000/svg" viewBox="0 0 325.16 99.21">
  <defs>
    <style>
      .cls-1 {
        fill: #7565ad;
      }

      .cls-1, .cls-2 {
        stroke-width: 0px;
      }

      .cls-2 {
        fill: #fff;
      }
    </style>
  </defs>
  <rect class="cls-1" x="0" y="0" width="325.16" height="99.21" rx="43.78" ry="43.78"/>
  <g>
    <path class="cls-2" d="m102.5,32.53l-5,1.86c-.27-1.84-1.12-3.51-2.56-5-1.44-1.5-3.43-2.25-5.96-2.25-2.23,0-4.09.68-5.56,2.04-1.48,1.36-2.21,3.04-2.21,5.03,0,1.56.44,2.88,1.33,3.95.89,1.08,2.17,1.82,3.83,2.22l6.02,1.38c3.33.76,5.9,2.19,7.72,4.28s2.72,4.64,2.72,7.64c0,3.44-1.29,6.39-3.86,8.87-2.57,2.48-5.92,3.72-10.05,3.72-4.5,0-8.03-1.25-10.59-3.75-2.56-2.5-4.04-5.46-4.46-8.9l5.34-1.8c.23,2.56,1.17,4.71,2.84,6.47,1.67,1.76,3.94,2.64,6.81,2.64,2.65,0,4.69-.64,6.13-1.92,1.44-1.28,2.16-2.9,2.16-4.85,0-1.6-.51-2.99-1.53-4.16-1.02-1.18-2.52-1.99-4.48-2.43l-5.73-1.32c-2.99-.68-5.37-2.02-7.15-4.02-1.78-2-2.67-4.53-2.67-7.61,0-3.36,1.3-6.3,3.89-8.84,2.59-2.54,5.72-3.81,9.4-3.81,4.12,0,7.28,1.06,9.48,3.18,2.19,2.12,3.58,4.58,4.14,7.37Z"/>
    <path class="cls-2" d="m109.56,28.48c-.74-.78-1.11-1.73-1.11-2.85s.37-2.08,1.11-2.88c.74-.8,1.64-1.2,2.7-1.2s1.97.39,2.72,1.17c.76.78,1.14,1.75,1.14,2.91s-.38,2.07-1.14,2.85c-.76.78-1.67,1.17-2.72,1.17s-1.96-.39-2.7-1.17Zm5.36,36.89h-5.28v-28.83h5.28v28.83Z"/>
    <path class="cls-2" d="m122.02,66.93l5.17-1.26c.19,2.04.97,3.72,2.33,5.06,1.36,1.34,3.07,2.01,5.11,2.01,5.56,0,8.34-3.12,8.34-9.35v-4.14c-.68,1.4-1.75,2.54-3.21,3.42-1.46.88-3.17,1.32-5.14,1.32-3.63,0-6.63-1.31-9-3.93-2.37-2.62-3.55-5.96-3.55-10.04s1.17-7.28,3.52-9.98c2.35-2.7,5.36-4.05,9.03-4.05,4.16,0,6.96,1.52,8.4,4.55v-4.02h5.28v26.67c0,1.92-.24,3.71-.71,5.36-.47,1.66-1.22,3.19-2.24,4.58-1.02,1.4-2.45,2.5-4.29,3.3-1.84.8-3.98,1.2-6.44,1.2-3.37,0-6.23-1.01-8.57-3.03-2.35-2.02-3.69-4.58-4.03-7.7Zm13.4-7.67c2.31,0,4.18-.85,5.62-2.55,1.44-1.7,2.16-3.93,2.16-6.68s-.72-4.98-2.16-6.68c-1.44-1.7-3.31-2.55-5.62-2.55s-4.25.84-5.71,2.52c-1.46,1.68-2.19,3.92-2.19,6.71s.71,5.09,2.13,6.74c1.42,1.66,3.34,2.49,5.76,2.49Z"/>
    <path class="cls-2" d="m162.16,48.71v16.66h-5.34v-28.83h5.22v4.14c1.82-3.32,4.62-4.97,8.4-4.97,3.14,0,5.55,1.06,7.24,3.18,1.68,2.12,2.53,4.85,2.53,8.21v18.28h-5.34v-17.32c0-4.83-2.12-7.25-6.36-7.25-2.01,0-3.57.75-4.68,2.25-1.12,1.5-1.67,3.39-1.67,5.66Z"/>
    <path class="cls-2" d="m220.91,61.89c-.72,1.44-1.82,2.53-3.29,3.27s-3.07,1.11-4.77,1.11c-3.1,0-5.58-1.09-7.44-3.27-1.85-2.18-2.78-4.94-2.78-8.3v-18.16h5.34v17.32c0,2.16.5,3.94,1.5,5.33,1,1.4,2.56,2.1,4.68,2.1s3.73-.67,4.83-2.01c1.1-1.34,1.65-3.13,1.65-5.36v-17.38h5.34v23.49c0,1.88.09,3.66.28,5.33h-5.11c-.15-.88-.23-2.04-.23-3.48Z"/>
    <path class="cls-2" d="m240.33,76.75h-5.28v-40.21h5.17v4.49c.8-1.52,1.99-2.76,3.58-3.72,1.59-.96,3.44-1.44,5.56-1.44,3.94,0,7.01,1.42,9.22,4.26,2.21,2.84,3.32,6.43,3.32,10.79s-1.14,8.03-3.43,10.91-5.38,4.31-9.28,4.31c-2.01,0-3.79-.44-5.34-1.32-1.55-.88-2.72-2-3.52-3.36v15.28Zm16.12-25.83c0-2.92-.73-5.32-2.19-7.22-1.46-1.9-3.42-2.85-5.88-2.85s-4.38.95-5.88,2.85c-1.5,1.9-2.24,4.31-2.24,7.22s.75,5.44,2.24,7.34c1.5,1.9,3.45,2.85,5.88,2.85s4.37-.95,5.85-2.85c1.47-1.9,2.21-4.34,2.21-7.34Z"/>
  </g>
</svg>